<?xml version="1.0" standalone="no"?>
<!DOCTYPE svg PUBLIC "-//W3C//DTD SVG 20010904//EN"
 "http://www.w3.org/TR/2001/REC-SVG-20010904/DTD/svg10.dtd">
<svg version="1.0" xmlns="http://www.w3.org/2000/svg"
 width="700.000000pt" height="700.000000pt" viewBox="0 0 700.000000 700.000000"
 preserveAspectRatio="xMidYMid meet">
<metadata>
Created by potrace 1.11, written by Peter Selinger 2001-2013
</metadata>
<g transform="translate(0.000000,700.000000) scale(0.100000,-0.100000)"
fill="#000000" stroke="none">
<path d="M1090 3500 l0 -3390 1798 3 1797 3 90 21 c572 137 975 540 1111 1114
16 67 18 151 21 854 3 681 2 793 -12 883 -21 135 -72 293 -133 415 l-49 97 49
98 c50 100 93 222 124 352 16 68 18 150 22 845 4 835 2 869 -50 1055 -30 110
-109 285 -171 381 -216 336 -571 571 -965 639 -110 19 -170 20 -1873 20
l-1759 0 0 -3390z m3553 2674 c242 -54 450 -244 533 -486 41 -120 46 -228 42
-915 -4 -618 -5 -640 -26 -716 -74 -268 -307 -490 -566 -539 -36 -7 -66 -15
-66 -19 0 -4 21 -9 48 -13 203 -28 425 -195 526 -396 82 -164 81 -150 81 -945
0 -762 2 -736 -58 -884 -74 -184 -251 -347 -455 -419 l-77 -27 -1422 -3 -1423
-2 0 2690 0 2690 1396 0 c1245 0 1403 -2 1467 -16z"/>
<path d="M3260 4295 l0 -425 240 0 240 0 0 425 0 425 -240 0 -240 0 0 -425z"/>
<path d="M3260 2710 l0 -430 240 0 240 0 0 430 0 430 -240 0 -240 0 0 -430z"/>
</g>
</svg>
