<?xml version="1.0" encoding="utf-8"?>
<!-- Generator: Adobe Illustrator 16.0.3, SVG Export Plug-In . SVG Version: 6.00 Build 0)  -->
<!DOCTYPE svg PUBLIC "-//W3C//DTD SVG 1.1//EN" "http://www.w3.org/Graphics/SVG/1.1/DTD/svg11.dtd">
<svg version="1.1" id="Capa_1" xmlns="http://www.w3.org/2000/svg" xmlns:xlink="http://www.w3.org/1999/xlink" x="0px" y="0px"
	 width="287.599px" height="137.598px" viewBox="0 0 287.599 137.598" enable-background="new 0 0 287.599 137.598"
	 xml:space="preserve">
<g>
	<path fill="#266EB6" d="M50,137.598v-37.6H0V0h37.6v62.599H50V25.2h37.599v112.398H50z"/>
	<path fill="#266EB6" d="M168.799,137.598H118.8c-10.2,0-18.8-8.6-18.8-18.8V18.8C100,8.6,108.6,0,118.8,0h49.999
		c10.199,0,18.8,8.6,18.8,18.8v99.999C187.599,128.998,178.999,137.598,168.799,137.598z M150,37.6H137.6v62.399H150V37.6z"/>
	<path fill="#266EB6" d="M249.999,137.598v-37.6H200V0h37.6v62.599h12.398V25.2h37.6v112.398H249.999z"/>
</g>
</svg>
