<?xml version="1.0" encoding="utf-8"?>
<!-- Generator: Adobe Illustrator 16.0.3, SVG Export Plug-In . SVG Version: 6.00 Build 0)  -->
<!DOCTYPE svg PUBLIC "-//W3C//DTD SVG 1.1//EN" "http://www.w3.org/Graphics/SVG/1.1/DTD/svg11.dtd">
<svg version="1.1" xmlns="http://www.w3.org/2000/svg" xmlns:xlink="http://www.w3.org/1999/xlink" x="0px" y="0px"
	 width="201.749px" height="35.5px" viewBox="15.364 -0.232 201.749 35.5" enable-background="new 15.364 -0.232 201.749 35.5"
	 xml:space="preserve">
<g id="border">
	<g>
		<g>
			<path fill="#F2F2F2" d="M29.948,25.936H18.364V2.768h11.584c1.718,0,3.166,1.447,3.166,3.165v5.254
				c0,1.717-1.449,3.165-3.166,3.165c1.718,0,3.166,1.448,3.166,3.165v5.254C33.114,24.487,31.665,25.936,29.948,25.936z
				 M26.784,9.099h-2.088v3.67h2.088V9.099z M26.784,15.9h-2.088v3.704h2.088V15.9z"/>
			<path fill="#266EB6" d="M29.948,28.936H15.364V-0.232h14.584c3.4,0,6.166,2.766,6.166,6.165v5.254
				c0,1.156-0.32,2.239-0.876,3.165c0.556,0.926,0.876,2.009,0.876,3.165v5.254C36.114,26.17,33.348,28.936,29.948,28.936z
				 M21.364,22.936h8.584c0.061,0,0.166-0.105,0.166-0.166v-5.254c0-0.06-0.105-0.165-0.166-0.165v-6
				c0.061,0,0.166-0.105,0.166-0.165V5.932c0-0.06-0.105-0.165-0.166-0.165h-8.584V22.936z M29.784,22.604h-8.088V6.099h8.088
				V22.604z"/>
		</g>
		<g>
			<path fill="#F2F2F2" d="M46.789,25.936h-8.419c-1.717,0-3.165-1.449-3.165-3.166V9.099h6.331v12.628h2.088V9.099h6.332V22.77
				C49.955,24.487,48.506,25.936,46.789,25.936z"/>
			<path fill="#266EB6" d="M46.789,28.936h-8.419c-3.399,0-6.165-2.766-6.165-6.166V6.099h20.751V22.77
				C52.954,26.17,50.187,28.936,46.789,28.936z M46.624,22.936h0.165c0.061,0,0.167-0.106,0.167-0.168V12.099h-0.332V22.936z
				 M38.205,12.099V22.77c0,0.061,0.104,0.166,0.165,0.166h0.167V12.099H38.205z"/>
		</g>
		<g>
			<path fill="#F2F2F2" d="M63.629,19.605h-5.252v2.122h7.375v4.21H55.21c-1.717,0-3.165-1.448-3.165-3.166V12.264
				c0-1.718,1.449-3.165,3.165-3.165h8.419c1.718,0,3.166,1.448,3.166,3.165v4.209C66.795,18.191,65.346,19.605,63.629,19.605z
				 M60.464,13.308h-2.087v2.122h2.087V13.308z"/>
			<path fill="#266EB6" d="M68.752,28.937H55.21c-3.399,0-6.165-2.766-6.165-6.166V12.264c0-3.399,2.766-6.165,6.165-6.165h8.419
				c3.4,0,6.166,2.766,6.166,6.165v4.209c0,1.261-0.384,2.434-1.043,3.409V28.937z M55.21,12.099c-0.06,0-0.165,0.105-0.165,0.165
				v10.507c0,0.061,0.105,0.166,0.165,0.166h0.167V12.099H55.21z M63.464,16.605h0.165c0.085,0,0.166-0.096,0.166-0.132v-4.209
				c0-0.06-0.105-0.165-0.166-0.165h-0.165V16.605z"/>
		</g>
		<g>
			<path fill="#F2F2F2" d="M83.635,25.936h-6.332V13.308h-2.088v12.629h-6.331V9.099h11.584c1.718,0,3.166,1.448,3.166,3.165V25.936
				z"/>
			<path fill="#266EB6" d="M78.216,28.937H65.885V6.099h14.584c3.4,0,6.166,2.766,6.166,6.165v16.672L78.216,28.937z M71.885,22.937
				h0.331V12.099h-0.331V22.937z M80.303,22.936h0.332V12.264c0-0.06-0.105-0.165-0.166-0.165h-0.166V22.936z"/>
		</g>
		<g>
			<path fill="#F2F2F2" d="M100.475,22.77c0,1.719-1.449,3.166-3.166,3.166H88.89c-1.717,0-3.165-1.449-3.165-3.166V12.264
				c0-1.718,1.449-3.165,3.165-3.165h8.419c1.718,0,3.166,1.448,3.166,3.165V22.77z M94.145,13.308h-2.088v8.419h2.088V13.308z"/>
			<path fill="#266EB6" d="M97.309,28.936H88.89c-3.399,0-6.165-2.766-6.165-6.166V12.264c0-3.399,2.766-6.165,6.165-6.165h8.419
				c3.4,0,6.166,2.766,6.166,6.165V22.77C103.475,26.17,100.709,28.936,97.309,28.936z M97.145,22.936h0.165
				c0.061,0,0.166-0.105,0.166-0.166V12.264c0-0.06-0.105-0.165-0.166-0.165h-0.165V22.936z M88.89,12.099
				c-0.06,0-0.165,0.105-0.165,0.165V22.77c0,0.061,0.104,0.166,0.165,0.166h0.167V12.099H88.89z"/>
		</g>
		<g>
			<path fill="#F2F2F2" d="M112.028,25.936h-9.463v-4.21h6.332v-2.122h-3.166c-1.717,0-3.165-1.414-3.165-3.132v-4.209
				c0-1.718,1.449-3.165,3.165-3.165h8.621v4.208h-5.455v2.122h3.131c1.718,0,3.166,1.415,3.166,3.133v4.208
				C115.194,24.487,113.746,25.936,112.028,25.936z"/>
			<path fill="#266EB6" d="M112.028,28.936H99.565v-10.21h0.432c-0.278-0.698-0.431-1.458-0.431-2.254v-4.209
				c0-3.399,2.766-6.165,6.165-6.165h11.621v9.372c0.535,0.908,0.842,1.965,0.842,3.092v4.208
				C118.194,26.17,115.428,28.936,112.028,28.936z M111.897,22.936h0.131c0.061,0,0.166-0.105,0.166-0.166v-4.208
				c0-0.041-0.085-0.134-0.166-0.134h-0.131V22.936z M105.731,12.098c-0.06,0-0.165,0.104-0.165,0.165v4.209
				c0,0.036,0.08,0.132,0.165,0.132h0.166v-4.506H105.731z"/>
		</g>
		<g>
			<path fill="#F2F2F2" d="M128.868,25.936h-8.419c-1.718,0-3.164-1.449-3.164-3.166v-7.341h6.33v4.175h2.088V2.768h6.332V22.77
				C132.034,24.487,130.585,25.936,128.868,25.936z"/>
			<path fill="#266EB6" d="M128.868,28.936h-8.419c-3.398,0-6.164-2.766-6.164-6.166V12.429h8.418V-0.232h12.332V22.77
				C135.033,26.17,132.266,28.936,128.868,28.936z M120.285,18.428v4.342c0,0.061,0.104,0.166,0.164,0.166h8.419
				c0.061,0,0.167-0.106,0.167-0.168v-17h-0.332v16.836h-8.088v-4.176H120.285z"/>
		</g>
		<g>
			<path fill="#F2F2F2" d="M145.709,25.936h-8.42c-1.718,0-3.164-1.449-3.164-3.166V9.099h6.33v12.628h2.088V9.099h6.332V22.77
				C148.874,24.487,147.426,25.936,145.709,25.936z"/>
			<path fill="#266EB6" d="M145.709,28.936h-8.42c-3.398,0-6.164-2.766-6.164-6.166V6.099h20.75V22.77
				C151.873,26.17,149.107,28.936,145.709,28.936z M145.543,22.936h0.166c0.061,0,0.166-0.106,0.166-0.168V12.099h-0.332V22.936z
				 M137.125,12.099V22.77c0,0.061,0.104,0.166,0.164,0.166h0.166V12.099H137.125z"/>
		</g>
		<g>
			<path fill="#F2F2F2" d="M162.548,19.605h-5.253v2.122h7.374v4.21H154.13c-1.718,0-3.165-1.448-3.165-3.166V12.264
				c0-1.718,1.447-3.165,3.165-3.165h8.418c1.718,0,3.166,1.448,3.166,3.165v4.209C165.714,18.191,164.265,19.605,162.548,19.605z
				 M159.384,13.308h-2.088v2.122h2.088V13.308z"/>
			<path fill="#266EB6" d="M167.669,28.937H154.13c-3.399,0-6.165-2.766-6.165-6.166V12.264c0-3.399,2.766-6.165,6.165-6.165h8.418
				c3.4,0,6.166,2.766,6.166,6.165v4.209c0,1.262-0.386,2.436-1.045,3.412V28.937z M154.13,12.099c-0.061,0-0.165,0.105-0.165,0.165
				v10.507c0,0.061,0.104,0.166,0.165,0.166h0.165l0.001-10.838H154.13z M162.384,16.605h0.164c0.085,0,0.166-0.096,0.166-0.132
				v-4.209c0-0.06-0.105-0.165-0.166-0.165h-0.164V16.605z"/>
		</g>
		<g>
			<path fill="#F2F2F2" d="M179.388,32.267h-10.539v-4.243h7.375v-2.087h-5.254c-1.717,0-3.165-1.448-3.165-3.166V12.264
				c0-1.718,1.448-3.165,3.165-3.165h11.584v20.002C182.553,30.818,181.105,32.267,179.388,32.267z M176.224,13.308h-2.089v8.419
				h2.089V13.308z"/>
			<path fill="#266EB6" d="M179.388,35.267h-13.539v-9.066c-0.659-0.981-1.044-2.161-1.044-3.43V12.264
				c0-3.399,2.766-6.165,6.165-6.165h14.584v23.002C185.552,32.501,182.787,35.267,179.388,35.267z M179.224,29.267h0.164
				c0.061,0,0.166-0.106,0.166-0.168v-17h-0.33V29.267z M170.97,12.099c-0.061,0-0.165,0.105-0.165,0.165v10.507
				c0,0.061,0.104,0.166,0.165,0.166h0.165V12.099H170.97z"/>
		</g>
		<g>
			<path fill="#F2F2F2" d="M199.393,22.77c0,1.719-1.447,3.166-3.165,3.166h-8.419c-1.716,0-3.165-1.449-3.165-3.166V12.264
				c0-1.718,1.449-3.165,3.165-3.165h8.419c1.718,0,3.165,1.448,3.165,3.165V22.77z M193.064,13.308h-2.088v8.419h2.088V13.308z"/>
			<path fill="#266EB6" d="M196.228,28.936h-8.419c-3.399,0-6.165-2.766-6.165-6.166V12.264c0-3.399,2.766-6.165,6.165-6.165h8.419
				c3.399,0,6.165,2.766,6.165,6.165V22.77C202.393,26.17,199.628,28.936,196.228,28.936z M196.064,22.936h0.164
				c0.062,0,0.165-0.104,0.165-0.166V12.264c0-0.06-0.104-0.165-0.165-0.165h-0.164V22.936z M187.809,12.099
				c-0.061,0-0.165,0.105-0.165,0.165V22.77c0,0.059,0.106,0.166,0.165,0.166h0.167V12.099H187.809z"/>
		</g>
		<g>
			<path fill="#F2F2F2" d="M210.947,25.936h-9.462v-4.21h6.331v-2.122h-3.166c-1.717,0-3.165-1.414-3.165-3.132v-4.209
				c0-1.718,1.448-3.165,3.165-3.165h8.621v4.208h-5.456v2.122h3.131c1.718,0,3.167,1.415,3.167,3.133v4.208
				C214.114,24.487,212.665,25.936,210.947,25.936z"/>
			<path fill="#266EB6" d="M210.947,28.936h-12.462v-10.21h0.432c-0.278-0.698-0.432-1.458-0.432-2.254v-4.209
				c0-3.399,2.766-6.165,6.165-6.165h11.621v9.373c0.535,0.908,0.842,1.964,0.842,3.091v4.208c0.001,1.631-0.645,3.176-1.817,4.348
				C214.124,28.291,212.579,28.936,210.947,28.936z M210.816,22.936h0.131c0.078,0,0.166-0.087,0.166-0.164v-4.21
				c0-0.041-0.086-0.134-0.167-0.134h-0.13V22.936z M204.65,12.098c-0.061,0-0.165,0.104-0.165,0.165v4.209
				c0,0.036,0.08,0.132,0.165,0.132h0.165v-4.506H204.65z"/>
		</g>
	</g>
</g>
<g id="text">
	<g>
		<path fill="#F2F2F2" d="M29.948,25.936H18.364V2.768h11.584c1.718,0,3.166,1.447,3.166,3.165v5.254
			c0,1.717-1.449,3.165-3.166,3.165c1.718,0,3.166,1.448,3.166,3.165v5.254C33.114,24.487,31.665,25.936,29.948,25.936z
			 M26.784,9.099h-2.088v3.67h2.088V9.099z M26.784,15.9h-2.088v3.704h2.088V15.9z"/>
		<path fill="#F2F2F2" d="M46.789,25.936h-8.419c-1.717,0-3.165-1.449-3.165-3.166V9.099h6.331v12.628h2.088V9.099h6.332V22.77
			C49.955,24.487,48.506,25.936,46.789,25.936z"/>
		<path fill="#F2F2F2" d="M63.629,19.605h-5.252v2.122h7.375v4.21H55.21c-1.717,0-3.165-1.448-3.165-3.166V12.264
			c0-1.718,1.449-3.165,3.165-3.165h8.419c1.718,0,3.166,1.448,3.166,3.165v4.209C66.795,18.191,65.346,19.605,63.629,19.605z
			 M60.464,13.308h-2.087v2.122h2.087V13.308z"/>
		<path fill="#F2F2F2" d="M83.635,25.936h-6.332V13.308h-2.088v12.629h-6.331V9.099h11.584c1.718,0,3.166,1.448,3.166,3.165V25.936z
			"/>
		<path fill="#F2F2F2" d="M100.475,22.77c0,1.719-1.449,3.166-3.166,3.166H88.89c-1.717,0-3.165-1.449-3.165-3.166V12.264
			c0-1.718,1.449-3.165,3.165-3.165h8.419c1.718,0,3.166,1.448,3.166,3.165V22.77z M94.145,13.308h-2.088v8.419h2.088V13.308z"/>
		<path fill="#F2F2F2" d="M112.028,25.936h-9.463v-4.21h6.332v-2.122h-3.166c-1.717,0-3.165-1.414-3.165-3.132v-4.209
			c0-1.718,1.449-3.165,3.165-3.165h8.621v4.208h-5.455v2.122h3.131c1.718,0,3.166,1.415,3.166,3.133v4.208
			C115.194,24.487,113.746,25.936,112.028,25.936z"/>
		<path fill="#F2F2F2" d="M128.868,25.936h-8.419c-1.718,0-3.164-1.449-3.164-3.166v-7.341h6.33v4.175h2.088V2.768h6.332V22.77
			C132.034,24.487,130.585,25.936,128.868,25.936z"/>
		<path fill="#F2F2F2" d="M145.709,25.936h-8.42c-1.718,0-3.164-1.449-3.164-3.166V9.099h6.33v12.628h2.088V9.099h6.332V22.77
			C148.874,24.487,147.426,25.936,145.709,25.936z"/>
		<path fill="#F2F2F2" d="M162.548,19.605h-5.253v2.122h7.374v4.21H154.13c-1.718,0-3.165-1.448-3.165-3.166V12.264
			c0-1.718,1.447-3.165,3.165-3.165h8.418c1.718,0,3.166,1.448,3.166,3.165v4.209C165.714,18.191,164.265,19.605,162.548,19.605z
			 M159.384,13.308h-2.088v2.122h2.088V13.308z"/>
		<path fill="#F2F2F2" d="M179.388,32.267h-10.539v-4.243h7.375v-2.087h-5.254c-1.717,0-3.165-1.448-3.165-3.166V12.264
			c0-1.718,1.448-3.165,3.165-3.165h11.584v20.002C182.553,30.818,181.105,32.267,179.388,32.267z M176.224,13.308h-2.089v8.419
			h2.089V13.308z"/>
		<path fill="#F2F2F2" d="M199.393,22.77c0,1.719-1.447,3.166-3.165,3.166h-8.419c-1.716,0-3.165-1.449-3.165-3.166V12.264
			c0-1.718,1.449-3.165,3.165-3.165h8.419c1.718,0,3.165,1.448,3.165,3.165V22.77z M193.064,13.308h-2.088v8.419h2.088V13.308z"/>
		<path fill="#F2F2F2" d="M210.947,25.936h-9.462v-4.21h6.331v-2.122h-3.166c-1.717,0-3.165-1.414-3.165-3.132v-4.209
			c0-1.718,1.448-3.165,3.165-3.165h8.621v4.208h-5.456v2.122h3.131c1.718,0,3.167,1.415,3.167,3.133v4.208
			C214.114,24.487,212.665,25.936,210.947,25.936z"/>
	</g>
</g>
</svg>
