<?xml version="1.0" encoding="utf-8"?>
<!-- Generator: Adobe Illustrator 16.0.3, SVG Export Plug-In . SVG Version: 6.00 Build 0)  -->
<!DOCTYPE svg PUBLIC "-//W3C//DTD SVG 1.1//EN" "http://www.w3.org/Graphics/SVG/1.1/DTD/svg11.dtd">
<svg version="1.1" xmlns="http://www.w3.org/2000/svg" xmlns:xlink="http://www.w3.org/1999/xlink" x="0px" y="0px" width="300px"
	 height="300px" viewBox="0 0 300 300" enable-background="new 0 0 300 300" xml:space="preserve">
<g id="Capa_1">
	<rect opacity="0.7" width="300" height="300"/>
</g>
<g id="Capa_2">
	<g opacity="0.7">
		<path fill="#FFFFFF" d="M227.897,29.523H72.103c-8.602,0-15.58,8.047-15.58,17.964V167.25c0,9.918,6.979,17.965,15.58,17.965
			h62.317l-5.192,17.965h-23.369c-4.317,0-7.79,4.004-7.79,8.982c0,4.977,3.473,8.981,7.79,8.981h88.283
			c4.317,0,7.789-4.005,7.789-8.981c0-4.979-3.472-8.982-7.789-8.982h-23.37l-5.191-17.965h62.317c8.603,0,15.58-8.047,15.58-17.965
			V47.487C243.478,37.57,236.5,29.523,227.897,29.523z M222.703,161.262H77.296V53.477h145.407V161.262z"/>
	</g>
	<g opacity="0.7">
		<path fill="#FFFFFF" d="M29.921,261H17.538v-6.768h8.999v-2.231h-5.615c-1.836,0-3.384-1.548-3.384-3.384v-8.998
			c0-1.836,1.548-3.384,3.384-3.384h11.482v6.767h-8.099v2.232h5.616c1.835,0,3.383,1.548,3.383,3.383v8.999
			C33.304,259.452,31.756,261,29.921,261z"/>
		<path fill="#FFFFFF" d="M51.304,257.616c0,1.836-1.548,3.384-3.383,3.384h-8.999c-1.836,0-3.384-1.548-3.384-3.384v-11.23
			c0-1.836,1.548-3.384,3.384-3.384h8.999c1.835,0,3.383,1.548,3.383,3.384V257.616z M44.537,247.502h-2.232v8.999h2.232V247.502z"
			/>
		<path fill="#FFFFFF" d="M53.538,261v-24.765h6.767V261H53.538z"/>
		<path fill="#FFFFFF" d="M78.304,257.616c0,1.836-1.548,3.384-3.383,3.384h-8.999c-1.836,0-3.384-1.548-3.384-3.384v-11.23
			c0-1.836,1.548-3.384,3.384-3.384h8.999c1.835,0,3.383,1.548,3.383,3.384V257.616z M71.537,247.502h-2.232v8.999h2.232V247.502z"
			/>
		<path fill="#FFFFFF" d="M102.353,254.232h-5.616v2.269h7.883V261H93.354c-1.836,0-3.384-1.548-3.384-3.384v-11.23
			c0-1.836,1.548-3.384,3.384-3.384h8.999c1.835,0,3.383,1.548,3.383,3.384v4.5C105.736,252.721,104.188,254.232,102.353,254.232z
			 M98.969,247.502h-2.232v2.268h2.232V247.502z"/>
		<path fill="#FFFFFF" d="M123.736,261h-6.767v-13.498h-2.232V261h-6.767v-17.998h12.383c1.835,0,3.383,1.548,3.383,3.384V261z"/>
		<path fill="#FFFFFF" d="M147.784,254.232h-5.616v2.269h7.883V261h-11.266c-1.836,0-3.384-1.548-3.384-3.384v-11.23
			c0-1.836,1.548-3.384,3.384-3.384h8.999c1.835,0,3.384,1.548,3.384,3.384v4.5C151.168,252.721,149.62,254.232,147.784,254.232z
			 M144.4,247.502h-2.232v2.268h2.232V247.502z"/>
		<path fill="#FFFFFF" d="M163.516,261h-10.113v-4.499h6.766v-2.269h-3.383c-1.836,0-3.383-1.512-3.383-3.347v-4.5
			c0-1.836,1.547-3.384,3.383-3.384H166v4.5h-5.832v2.268h3.348c1.836,0,3.385,1.512,3.385,3.348v4.499
			C166.9,259.452,165.352,261,163.516,261z"/>
		<path fill="#FFFFFF" d="M182.633,261h-10.115c-1.836,0-3.383-1.548-3.383-3.384v-11.23c0-1.836,1.547-3.384,3.383-3.384h10.115
			v4.5H175.9v8.999h6.732V261z"/>
		<path fill="#FFFFFF" d="M191.633,247.502V261h-6.768v-14.614c0-1.836,1.549-3.384,3.383-3.384h10.115v4.5H191.633z"/>
		<path fill="#FFFFFF" d="M199.914,240.771v-4.535h6.766v4.535H199.914z M199.914,261v-17.998h6.766V261H199.914z"/>
		<path fill="#FFFFFF" d="M214.564,261c-1.836,0-3.383-1.548-3.383-3.384v-10.114h-2.268v-4.5h2.268v-6.767h6.73v6.767h4.5v4.5h-4.5
			v8.999h4.5V261H214.564z"/>
		<path fill="#FFFFFF" d="M240.412,257.616c0,1.836-1.549,3.384-3.385,3.384h-8.998c-1.836,0-3.383-1.548-3.383-3.384v-11.23
			c0-1.836,1.547-3.384,3.383-3.384h8.998c1.836,0,3.385,1.548,3.385,3.384V257.616z M233.645,247.502h-2.232v8.999h2.232V247.502z"
			/>
		<path fill="#FFFFFF" d="M249.412,247.502V261h-6.766v-14.614c0-1.836,1.547-3.384,3.383-3.384h10.115v4.5H249.412z"/>
		<path fill="#FFFFFF" d="M257.693,240.771v-4.535h6.768v4.535H257.693z M257.693,261v-17.998h6.768V261H257.693z"/>
		<path fill="#FFFFFF" d="M282.459,257.616c0,1.836-1.547,3.384-3.383,3.384h-9c-1.834,0-3.383-1.548-3.383-3.384v-11.23
			c0-1.836,1.549-3.384,3.383-3.384h9c1.836,0,3.383,1.548,3.383,3.384V257.616z M275.691,247.502h-2.23v8.999h2.23V247.502z"/>
	</g>
</g>
</svg>
