<?xml version="1.0" encoding="utf-8"?>
<!-- Generator: Adobe Illustrator 16.0.3, SVG Export Plug-In . SVG Version: 6.00 Build 0)  -->
<!DOCTYPE svg PUBLIC "-//W3C//DTD SVG 1.1//EN" "http://www.w3.org/Graphics/SVG/1.1/DTD/svg11.dtd">
<svg version="1.1" id="Capa_1" xmlns="http://www.w3.org/2000/svg" xmlns:xlink="http://www.w3.org/1999/xlink" x="0px" y="0px"
	 width="287.599px" height="137.598px" viewBox="0 0 287.599 137.598" enable-background="new 0 0 287.599 137.598"
	 xml:space="preserve">
<g>
	<path fill="#266EB6" d="M68.799,137.598H0v-37.6h50V87.599H18.8c-10.2,0-18.8-8.6-18.8-18.8V0h87.599v37.599H37.6v12.4h31.2
		c10.2,0,18.799,8.6,18.799,18.8v49.999C87.599,128.998,78.999,137.598,68.799,137.598z"/>
	<path fill="#266EB6" d="M168.799,137.598h-50c-10.2,0-18.8-8.6-18.8-18.8V18.799C100,8.6,108.6,0,118.8,0h50
		c10.2,0,18.799,8.6,18.799,18.799v99.999C187.599,128.998,178.999,137.598,168.799,137.598z M150,37.599h-12.4v62.399H150V37.599z"
		/>
	<path fill="#266EB6" d="M268.798,137.598H200v-37.6h50V87.599H218.8c-10.201,0-18.801-8.6-18.801-18.8V0h87.6v37.599h-50v12.4
		h31.199c10.199,0,18.801,8.6,18.801,18.8v49.999C287.599,128.998,278.998,137.598,268.798,137.598z"/>
</g>
</svg>
