<?xml version="1.0" encoding="utf-8"?>
<!-- Generator: Adobe Illustrator 16.0.3, SVG Export Plug-In . SVG Version: 6.00 Build 0)  -->
<!DOCTYPE svg PUBLIC "-//W3C//DTD SVG 1.1//EN" "http://www.w3.org/Graphics/SVG/1.1/DTD/svg11.dtd">
<svg version="1.1" id="Capa_1" xmlns="http://www.w3.org/2000/svg" xmlns:xlink="http://www.w3.org/1999/xlink" x="0px" y="0px"
	 width="300px" height="300px" viewBox="0 0 300 300" enable-background="new 0 0 300 300" xml:space="preserve">
<rect fill="#B4B3B3" width="300" height="300"/>
<g>
	<g opacity="0.25">
		<path fill="#010202" d="M247.404,216.317H52.595c-12.414,0-22.478-10.064-22.478-22.479V58.972
			c0-12.415,10.064-22.478,22.478-22.478h194.809c12.415,0,22.479,10.063,22.479,22.478v134.867
			C269.883,206.253,259.819,216.317,247.404,216.317z M82.566,62.718c-14.483,0-26.224,11.741-26.224,26.225
			s11.741,26.224,26.224,26.224c14.483,0,26.225-11.74,26.225-26.224S97.049,62.718,82.566,62.718z M60.088,186.347h179.824v-52.447
			l-40.981-40.983c-2.194-2.194-5.755-2.194-7.948,0l-63.46,63.46l-25.998-25.998c-2.194-2.193-5.752-2.193-7.947,0l-33.489,33.49
			V186.347z"/>
	</g>
	<g opacity="0.25">
		<path d="M93.443,256.738h-8.999c-1.836,0-3.384-1.548-3.384-3.384v-17.997c0-1.836,1.548-3.384,3.384-3.384h8.999
			c1.836,0,3.384,1.548,3.384,3.384v6.767H90.06v-3.384h-2.231v11.23h2.231v-3.347h6.768v6.73
			C96.827,255.19,95.279,256.738,93.443,256.738z"/>
		<path d="M101.977,256.738c-1.836,0-3.348-1.548-3.348-3.384v-4.499c0-1.836,1.512-3.348,3.348-3.348h5.651v-2.268h-7.883v-4.5
			h11.23c1.836,0,3.384,1.548,3.384,3.384v14.614H101.977z M107.628,249.971h-2.268v2.269h2.268V249.971z"/>
		<path d="M123.36,243.24v13.498h-6.768v-14.614c0-1.836,1.548-3.384,3.384-3.384h10.115v4.5H123.36z"/>
		<path d="M144.023,263.506h-11.267v-4.536h7.883v-2.231h-5.615c-1.836,0-3.384-1.548-3.384-3.384v-11.23
			c0-1.836,1.548-3.384,3.384-3.384h12.383v21.382C147.407,261.958,145.859,263.506,144.023,263.506z M140.64,243.24h-2.231v8.999
			h2.231V243.24z"/>
		<path d="M152.557,256.738c-1.836,0-3.348-1.548-3.348-3.384v-4.499c0-1.836,1.512-3.348,3.348-3.348h5.652v-2.268h-7.884v-4.5
			h11.231c1.836,0,3.383,1.548,3.383,3.384v14.614H152.557z M158.209,249.971h-2.268v2.269h2.268V249.971z"/>
		<path d="M182.939,256.738h-6.768V243.24h-2.232v13.498h-6.766V238.74h12.383c1.834,0,3.383,1.548,3.383,3.384V256.738z"/>
		<path d="M188.557,256.738c-1.836,0-3.383-1.548-3.383-3.384v-11.23c0-1.836,1.547-3.384,3.383-3.384h5.615v-6.767h6.768v24.765
			H188.557z M194.172,243.24h-2.232v8.999h2.232V243.24z"/>
		<path d="M218.939,253.354c0,1.836-1.547,3.384-3.383,3.384h-9c-1.836,0-3.383-1.548-3.383-3.384v-11.23
			c0-1.836,1.547-3.384,3.383-3.384h9c1.836,0,3.383,1.548,3.383,3.384V253.354z M212.172,243.24h-2.23v8.999h2.23V243.24z"/>
	</g>
</g>
</svg>
