<?xml version="1.0" encoding="utf-8"?>
<!-- Generator: Adobe Illustrator 16.0.3, SVG Export Plug-In . SVG Version: 6.00 Build 0)  -->
<!DOCTYPE svg PUBLIC "-//W3C//DTD SVG 1.1//EN" "http://www.w3.org/Graphics/SVG/1.1/DTD/svg11.dtd">
<svg version="1.1" id="Layer_1" xmlns="http://www.w3.org/2000/svg" xmlns:xlink="http://www.w3.org/1999/xlink" x="0px" y="0px"
	 width="693px" height="303px" viewBox="0 0 693 303" enable-background="new 0 0 693 303" xml:space="preserve">
<g>
	<g>
		<linearGradient id="SVGID_1_" gradientUnits="userSpaceOnUse" x1="244.291" y1="296.2197" x2="360.9895" y2="296.2197">
			<stop  offset="0.0061" style="stop-color:#58595B"/>
			<stop  offset="0.2803" style="stop-color:#757679"/>
			<stop  offset="0.5091" style="stop-color:#88898D"/>
			<stop  offset="1" style="stop-color:#58595B"/>
		</linearGradient>
		<path fill="url(#SVGID_1_)" d="M245,295v-0.561c0,0.038,0,0.072,0,0.109v0.04c0,2.12,3.753,3.411,12.762,3.411
			c17.434,0,36.314,0,43.224,0c1.748,0,2.729,0,2.729,0c6.911,0,25.793,0,43.227,0c9.007,0,12.155-1,12.184-3h-0.838l0,0H245z"/>
		<linearGradient id="SVGID_2_" gradientUnits="userSpaceOnUse" x1="301.7441" y1="253.0713" x2="301.7441" y2="302.8879">
			<stop  offset="0.0848" style="stop-color:#6D6F73"/>
			<stop  offset="0.127" style="stop-color:#97999C"/>
			<stop  offset="0.1841" style="stop-color:#CCCDCE"/>
			<stop  offset="0.2121" style="stop-color:#E0E1E2"/>
			<stop  offset="0.3152" style="stop-color:#A7A9AC"/>
			<stop  offset="0.3893" style="stop-color:#868789"/>
			<stop  offset="0.4606" style="stop-color:#636363"/>
			<stop  offset="0.5264" style="stop-color:#6E6F6F"/>
			<stop  offset="0.6452" style="stop-color:#8B8D8F"/>
			<stop  offset="0.7394" style="stop-color:#A6AAAD"/>
		</linearGradient>
		<path fill="url(#SVGID_2_)" d="M347.548,281.809c-8.039-8.191-8.342-25.809-8.342-25.809H303.11h-2.73h-36.097
			c0,0-0.303,17.617-8.341,25.809c-8.039,8.189-20.627,15.191,1.213,15.191c17.432,0,36.314,0,43.225,0c1.747,0,2.73,0,2.73,0
			c6.91,0,25.791,0,43.225,0C368.173,297,355.585,289.998,347.548,281.809z"/>
		<radialGradient id="SVGID_3_" cx="357.1025" cy="316.3574" r="42.4201" gradientUnits="userSpaceOnUse">
			<stop  offset="0" style="stop-color:#FFFFFF"/>
			<stop  offset="1" style="stop-color:#FFFFFF;stop-opacity:0"/>
		</radialGradient>
		<path fill="url(#SVGID_3_)" d="M308.925,297c4.46-9,18.703-17.86,36.424-19.595c0.813,1.379,1.74,2.62,2.807,3.708
			c7.897,8.045,20.184,15.887-0.097,15.887H308.925z"/>
		
			<radialGradient id="SVGID_4_" cx="481.3262" cy="316.3574" r="42.4201" gradientTransform="matrix(-1 0 0 1 728.9258 0)" gradientUnits="userSpaceOnUse">
			<stop  offset="0" style="stop-color:#FFFFFF"/>
			<stop  offset="1" style="stop-color:#FFFFFF;stop-opacity:0"/>
		</radialGradient>
		<path fill="url(#SVGID_4_)" d="M295.779,297c-4.459-9-18.705-17.86-36.426-19.595c-0.813,1.379-1.74,2.62-2.806,3.708
			C248.65,289.158,236.363,297,256.645,297H295.779z"/>
		<linearGradient id="SVGID_5_" gradientUnits="userSpaceOnUse" x1="256.645" y1="297.1172" x2="346.9414" y2="297.1172">
			<stop  offset="0.0061" style="stop-color:#FFFFFF;stop-opacity:0"/>
			<stop  offset="0.5091" style="stop-color:#FFFFFF"/>
			<stop  offset="1" style="stop-color:#FFFFFF;stop-opacity:0"/>
		</linearGradient>
		<path fill="url(#SVGID_5_)" d="M256.645,297.116c7.523-0.126,15.049-0.185,22.574-0.233l22.573-0.069l22.573,0.068l11.287,0.084
			l11.289,0.15l-11.289,0.148l-11.287,0.083l-22.573,0.072l-22.573-0.072C271.694,297.299,264.168,297.241,256.645,297.116z"/>
		<linearGradient id="SVGID_6_" gradientUnits="userSpaceOnUse" x1="110.583" y1="252.0996" x2="509.5592" y2="225.9472">
			<stop  offset="0" style="stop-color:#78797D"/>
			<stop  offset="0.3173" style="stop-color:#737478"/>
			<stop  offset="0.4909" style="stop-color:#6D6F73"/>
			<stop  offset="1" style="stop-color:#6D6F73"/>
		</linearGradient>
		<path fill="url(#SVGID_6_)" d="M117,244.943c0,6.031,5.664,11.057,11.695,11.057h169.258h5.762h169.26
			c6.029,0,11.025-5.025,11.025-11.057V224H117V244.943z"/>
		<path fill="#231F20" d="M472.975,5h-169.26h-5.762H128.695C122.664,5,117,8.989,117,15.02V224h367V15.02
			C484,8.989,479.004,5,472.975,5z M468,208H133V19h335V208z"/>
		<linearGradient id="SVGID_7_" gradientUnits="userSpaceOnUse" x1="110.6626" y1="252.0918" x2="509.5534" y2="225.945">
			<stop  offset="0" style="stop-color:#898A8F"/>
			<stop  offset="0.0499" style="stop-color:#909196"/>
			<stop  offset="0.3137" style="stop-color:#B1B2B6"/>
			<stop  offset="0.5663" style="stop-color:#C8CACD"/>
			<stop  offset="0.801" style="stop-color:#D6D8DB"/>
			<stop  offset="1" style="stop-color:#DBDDE0"/>
		</linearGradient>
		<path fill="url(#SVGID_7_)" d="M117,243.73c0,6.03,5.664,12.27,11.695,12.27h169.258h5.762h169.26
			c6.029,0,11.025-6.239,11.025-12.27V224H117V243.73z"/>
	</g>
	<rect x="133" y="18.836" fill="#CCC8C8" width="335" height="190.634"/>
	<g>
		<path fill="#231F20" d="M204.45,193.168c0-4.215-3.417-7.632-7.632-7.632h-38.316c-4.216,0-7.633,3.417-7.633,7.632v98.128
			c0,4.215,3.417,7.632,7.633,7.632h38.316c4.215,0,7.632-3.417,7.632-7.632V193.168z M183.267,195.544
			c0,0.666-0.54,1.207-1.207,1.207h-8.177c-0.667,0-1.207-0.541-1.207-1.207v-0.078c0-0.666,0.54-1.207,1.207-1.207h8.177
			c0.667,0,1.207,0.541,1.207,1.207V195.544z M200.713,282.729H155.23v-80.993h45.482V282.729z"/>
		<rect x="155.243" y="201.735" fill="#CCC8C8" width="45.47" height="80.993"/>
		<linearGradient id="SVGID_8_" gradientUnits="userSpaceOnUse" x1="150.7402" y1="233.9893" x2="204.4121" y2="233.9893">
			<stop  offset="0" style="stop-color:#FFFFFF;stop-opacity:0"/>
			<stop  offset="1" style="stop-color:#FFFFFF"/>
		</linearGradient>
		<path opacity="0.6" fill="url(#SVGID_8_)" d="M185,185.536h12.326c0,0,4.819,0.379,6.916,5.583l0.168,87.605
			c0,0,0.189,3.282-3.076,3.718c-3.365-0.243-50.594,0-50.594,0"/>
	</g>
	<g>
		<rect x="16.341" y="151.149" fill="#CCC8C8" width="98.805" height="134.029"/>
		<path fill="#231F20" d="M128.584,143.658c0-3.607-2.923-6.531-6.531-6.531H10.442c-3.607,0-6.531,2.924-6.531,6.531v148.738
			c0,3.607,2.924,6.531,6.531,6.531h111.611c3.608,0,6.531-2.924,6.531-6.531V143.658z M115.751,285.178H16.287V151.336h99.464
			V285.178z"/>
		<linearGradient id="SVGID_9_" gradientUnits="userSpaceOnUse" x1="12.0342" y1="217.5" x2="128.7593" y2="217.5">
			<stop  offset="0" style="stop-color:#FFFFFF;stop-opacity:0"/>
			<stop  offset="1" style="stop-color:#FFFFFF"/>
		</linearGradient>
		<path opacity="0.6" fill="url(#SVGID_9_)" d="M86.376,136.652h36.151c0,0,6.928,0.068,6.175,9.24l-0.21,146.252
			c0,0,0.413,5.477-6.674,6.203c-7.302-0.404-109.783,0-109.783,0"/>
	</g>
	<g>
		<g id="border">
			<g>
				<g>
					<path fill="#F2F2F2" d="M181.703,126.09h-15.948V94.194h15.948c2.365,0,4.358,1.992,4.358,4.357v7.233
						c0,2.364-1.994,4.357-4.358,4.357c2.365,0,4.358,1.994,4.358,4.357v7.233C186.062,124.095,184.067,126.09,181.703,126.09z
						 M177.348,102.91h-2.875v5.053h2.875V102.91z M177.348,112.273h-2.875v5.1h2.875V112.273z"/>
					<path fill="#266EB6" d="M181.703,130.22h-20.078V90.064h20.078c4.682,0,8.488,3.808,8.488,8.488v7.233
						c0,1.592-0.439,3.083-1.205,4.357c0.766,1.274,1.205,2.766,1.205,4.357v7.233C190.191,126.413,186.385,130.22,181.703,130.22z
						 M169.886,121.959h11.817c0.084,0,0.229-0.145,0.229-0.229v-7.233c0-0.083-0.145-0.227-0.229-0.227v-8.26
						c0.084,0,0.229-0.146,0.229-0.228V98.55c0-0.083-0.145-0.227-0.229-0.227h-11.817V121.959z M181.478,121.502h-11.135V98.78
						h11.135V121.502z"/>
				</g>
				<g>
					<path fill="#F2F2F2" d="M204.889,126.09h-11.591c-2.364,0-4.357-1.995-4.357-4.359V102.91h8.717v17.385h2.874V102.91h8.718
						v18.821C209.247,124.095,207.252,126.09,204.889,126.09z"/>
					<path fill="#266EB6" d="M204.889,130.22h-11.591c-4.679,0-8.487-3.807-8.487-8.489V98.78h28.568v22.951
						C213.376,126.413,209.566,130.22,204.889,130.22z M204.661,121.959h0.228c0.084,0,0.229-0.146,0.229-0.231v-14.688h-0.457
						V121.959z M193.071,107.041v14.69c0,0.083,0.143,0.229,0.227,0.229h0.23v-14.919H193.071z"/>
				</g>
				<g>
					<path fill="#F2F2F2" d="M228.072,117.374h-7.23v2.922h10.153v5.796h-14.514c-2.363,0-4.357-1.994-4.357-4.359v-14.465
						c0-2.365,1.995-4.357,4.357-4.357h11.591c2.365,0,4.358,1.994,4.358,4.357v5.794
						C232.431,115.427,230.437,117.374,228.072,117.374z M223.715,108.705h-2.873v2.922h2.873V108.705L223.715,108.705z"/>
					<path fill="#266EB6" d="M235.125,130.221h-18.644c-4.679,0-8.487-3.808-8.487-8.489v-14.465c0-4.68,3.809-8.487,8.487-8.487
						h11.591c4.681,0,8.488,3.807,8.488,8.487v5.794c0,1.736-0.528,3.351-1.436,4.693V130.221z M216.481,107.041
						c-0.082,0-0.227,0.144-0.227,0.227v14.465c0,0.083,0.145,0.229,0.227,0.229h0.23v-14.92H216.481z M227.845,113.244h0.228
						c0.117,0,0.229-0.132,0.229-0.182v-5.794c0-0.083-0.145-0.227-0.229-0.227h-0.228V113.244z"/>
				</g>
				<g>
					<path fill="#F2F2F2" d="M255.615,126.09h-8.718v-17.385h-2.875v17.387h-8.716V102.91h15.947c2.366,0,4.359,1.994,4.359,4.357
						v18.822H255.615z"/>
					<path fill="#266EB6" d="M248.154,130.221h-16.976V98.78h20.077c4.681,0,8.489,3.807,8.489,8.487v22.952L248.154,130.221z
						 M239.438,121.961h0.455v-14.92h-0.455V121.961z M251.027,121.959h0.458v-14.692c0-0.083-0.146-0.227-0.229-0.227h-0.229
						V121.959z"/>
				</g>
				<g>
					<path fill="#F2F2F2" d="M278.799,121.731c0,2.366-1.995,4.359-4.359,4.359h-11.59c-2.364,0-4.357-1.995-4.357-4.359v-14.463
						c0-2.365,1.994-4.357,4.357-4.357h11.59c2.365,0,4.359,1.994,4.359,4.357V121.731z M270.084,108.705h-2.875v11.591h2.875
						V108.705z"/>
					<path fill="#266EB6" d="M274.439,130.22h-11.59c-4.68,0-8.487-3.807-8.487-8.489v-14.463c0-4.68,3.808-8.487,8.487-8.487h11.59
						c4.681,0,8.489,3.807,8.489,8.487v14.463C282.929,126.413,279.12,130.22,274.439,130.22z M274.214,121.959h0.228
						c0.084,0,0.229-0.145,0.229-0.229v-14.463c0-0.083-0.145-0.227-0.229-0.227h-0.228V121.959z M262.85,107.041
						c-0.083,0-0.228,0.144-0.228,0.227v14.463c0,0.083,0.144,0.229,0.228,0.229h0.229v-14.919H262.85z"/>
				</g>
				<g>
					<path fill="#F2F2F2" d="M294.703,126.09h-13.027v-5.796h8.717v-2.921h-4.358c-2.363,0-4.357-1.947-4.357-4.312v-5.794
						c0-2.365,1.995-4.357,4.357-4.357h11.869v5.793h-7.511v2.921h4.311c2.366,0,4.358,1.948,4.358,4.313v5.793
						C299.062,124.095,297.069,126.09,294.703,126.09z"/>
					<path fill="#266EB6" d="M294.703,130.22h-17.157v-14.056h0.595c-0.383-0.961-0.594-2.007-0.594-3.103v-5.794
						c0-4.68,3.808-8.487,8.487-8.487h15.999v12.903c0.736,1.25,1.159,2.705,1.159,4.256v5.793
						C303.192,126.413,299.385,130.22,294.703,130.22z M294.523,121.959h0.18c0.083,0,0.229-0.145,0.229-0.229v-5.793
						c0-0.057-0.117-0.184-0.229-0.184h-0.18V121.959z M286.034,107.039c-0.083,0-0.228,0.143-0.228,0.227v5.794
						c0,0.05,0.11,0.182,0.228,0.182h0.229v-6.203H286.034z"/>
				</g>
				<g>
					<path fill="#F2F2F2" d="M317.887,126.09h-11.589c-2.366,0-4.356-1.995-4.356-4.359v-10.106h8.714v5.748h2.875V94.194h8.718
						v27.537C322.245,124.095,320.25,126.09,317.887,126.09z"/>
					<path fill="#266EB6" d="M317.887,130.22h-11.589c-4.679,0-8.486-3.807-8.486-8.489v-14.236H309.4V90.064h16.978v31.667
						C326.376,126.413,322.565,130.22,317.887,130.22z M306.072,115.754v5.977c0,0.083,0.142,0.229,0.226,0.229h11.589
						c0.085,0,0.231-0.146,0.231-0.231V98.324h-0.457v23.178h-11.135v-5.749H306.072z"/>
				</g>
				<g>
					<path fill="#F2F2F2" d="M341.073,126.09h-11.592c-2.366,0-4.356-1.995-4.356-4.359V102.91h8.715v17.385h2.874V102.91h8.718
						v18.821C345.429,124.095,343.437,126.09,341.073,126.09z"/>
					<path fill="#266EB6" d="M341.073,130.22h-11.592c-4.679,0-8.486-3.807-8.486-8.489V98.78h28.566v22.951
						C349.56,126.413,345.75,130.22,341.073,130.22z M340.845,121.959h0.229c0.083,0,0.229-0.146,0.229-0.231v-14.688h-0.457
						V121.959z M329.255,107.041v14.69c0,0.083,0.143,0.229,0.227,0.229h0.229v-14.919H329.255z"/>
				</g>
				<g>
					<path fill="#F2F2F2" d="M364.253,117.374h-7.23v2.922h10.151v5.796h-14.509c-2.363,0-4.356-1.994-4.356-4.359v-14.465
						c0-2.365,1.993-4.357,4.356-4.357h11.588c2.366,0,4.359,1.994,4.359,4.357v5.794
						C368.612,115.427,366.619,117.374,364.253,117.374z M359.897,108.705h-2.875v2.922h2.875V108.705z"/>
					<path fill="#266EB6" d="M371.304,130.221h-18.639c-4.679,0-8.486-3.808-8.486-8.489v-14.465c0-4.68,3.808-8.487,8.486-8.487
						h11.588c4.682,0,8.489,3.807,8.489,8.487v5.794c0,1.737-0.53,3.353-1.438,4.698V130.221z M352.665,107.041
						c-0.083,0-0.226,0.144-0.226,0.227v14.465c0,0.083,0.143,0.229,0.226,0.229h0.229v-14.92H352.665z M364.027,113.244h0.226
						c0.119,0,0.229-0.132,0.229-0.182v-5.794c0-0.083-0.143-0.227-0.229-0.227h-0.226V113.244z"/>
				</g>
				<g>
					<path fill="#F2F2F2" d="M387.439,134.806h-14.509v-5.841h10.153v-2.873h-7.233c-2.366,0-4.358-1.994-4.358-4.359v-14.465
						c0-2.365,1.992-4.357,4.358-4.357h15.947v27.537C391.796,132.811,389.803,134.806,387.439,134.806z M383.084,108.705h-2.878
						v11.591h2.878V108.705z"/>
					<path fill="#266EB6" d="M387.439,138.936H368.8v-12.482c-0.908-1.35-1.438-2.975-1.438-4.722v-14.465
						c0-4.68,3.808-8.487,8.489-8.487h20.078v31.667C395.926,135.128,392.118,138.936,387.439,138.936z M387.214,130.676h0.226
						c0.083,0,0.229-0.146,0.229-0.231v-23.404h-0.454V130.676z M375.851,107.041c-0.086,0-0.229,0.144-0.229,0.227v14.465
						c0,0.083,0.143,0.229,0.229,0.229h0.226v-14.92H375.851z"/>
				</g>
				<g>
					<path fill="#F2F2F2" d="M414.979,121.731c0,2.366-1.992,4.359-4.355,4.359h-11.592c-2.361,0-4.356-1.995-4.356-4.359v-14.463
						c0-2.365,1.995-4.357,4.356-4.357h11.592c2.363,0,4.355,1.994,4.355,4.357V121.731z M406.267,108.705h-2.874v11.591h2.874
						V108.705z"/>
					<path fill="#266EB6" d="M410.623,130.22h-11.592c-4.679,0-8.486-3.807-8.486-8.489v-14.463c0-4.68,3.808-8.487,8.486-8.487
						h11.592c4.679,0,8.486,3.807,8.486,8.487v14.463C419.109,126.413,415.302,130.22,410.623,130.22z M410.397,121.959h0.226
						c0.083,0,0.226-0.144,0.226-0.229v-14.463c0-0.083-0.143-0.227-0.226-0.227h-0.226V121.959z M399.031,107.041
						c-0.083,0-0.226,0.144-0.226,0.227v14.463c0,0.081,0.145,0.229,0.226,0.229h0.231v-14.919H399.031z"/>
				</g>
				<g>
					<path fill="#F2F2F2" d="M430.887,126.09h-13.028v-5.796h8.718v-2.921h-4.358c-2.364,0-4.359-1.947-4.359-4.312v-5.794
						c0-2.365,1.995-4.357,4.359-4.357h11.868v5.793h-7.513v2.921h4.311c2.366,0,4.361,1.948,4.361,4.313v5.793
						C435.245,124.095,433.25,126.09,430.887,126.09z"/>
					<path fill="#266EB6" d="M430.887,130.22h-17.158v-14.056h0.595c-0.382-0.961-0.595-2.007-0.595-3.103v-5.794
						c0-4.68,3.808-8.487,8.489-8.487h15.998v12.904c0.737,1.25,1.159,2.704,1.159,4.255v5.793c0,2.245-0.89,4.372-2.503,5.985
						C435.259,129.331,433.132,130.22,430.887,130.22z M430.706,121.959h0.181c0.107,0,0.229-0.12,0.229-0.226v-5.796
						c0-0.057-0.118-0.184-0.231-0.184h-0.178V121.959z M422.218,107.039c-0.086,0-0.229,0.143-0.229,0.227v5.794
						c0,0.05,0.11,0.182,0.229,0.182h0.226v-6.203H422.218z"/>
				</g>
			</g>
		</g>
		<g id="text">
			<g>
				<path fill="#F2F2F2" d="M181.703,126.09h-15.948V94.194h15.948c2.365,0,4.358,1.992,4.358,4.357v7.233
					c0,2.364-1.994,4.357-4.358,4.357c2.365,0,4.358,1.994,4.358,4.357v7.233C186.062,124.095,184.067,126.09,181.703,126.09z
					 M177.348,102.91h-2.875v5.053h2.875V102.91z M177.348,112.273h-2.875v5.1h2.875V112.273z"/>
				<path fill="#F2F2F2" d="M204.889,126.09h-11.591c-2.364,0-4.357-1.995-4.357-4.359V102.91h8.717v17.385h2.874V102.91h8.718
					v18.821C209.247,124.095,207.252,126.09,204.889,126.09z"/>
				<path fill="#F2F2F2" d="M228.072,117.374h-7.23v2.922h10.153v5.796h-14.514c-2.363,0-4.357-1.994-4.357-4.359v-14.465
					c0-2.365,1.995-4.357,4.357-4.357h11.591c2.365,0,4.358,1.994,4.358,4.357v5.794
					C232.431,115.427,230.437,117.374,228.072,117.374z M223.715,108.705h-2.873v2.922h2.873V108.705L223.715,108.705z"/>
				<path fill="#F2F2F2" d="M255.615,126.09h-8.718v-17.385h-2.875v17.387h-8.716V102.91h15.947c2.366,0,4.359,1.994,4.359,4.357
					v18.822H255.615z"/>
				<path fill="#F2F2F2" d="M278.799,121.731c0,2.366-1.995,4.359-4.359,4.359h-11.59c-2.364,0-4.357-1.995-4.357-4.359v-14.463
					c0-2.365,1.994-4.357,4.357-4.357h11.59c2.365,0,4.359,1.994,4.359,4.357V121.731z M270.084,108.705h-2.875v11.591h2.875
					V108.705z"/>
				<path fill="#F2F2F2" d="M294.703,126.09h-13.027v-5.796h8.717v-2.921h-4.358c-2.363,0-4.357-1.947-4.357-4.312v-5.794
					c0-2.365,1.995-4.357,4.357-4.357h11.869v5.793h-7.511v2.921h4.311c2.366,0,4.358,1.948,4.358,4.313v5.793
					C299.062,124.095,297.069,126.09,294.703,126.09z"/>
				<path fill="#F2F2F2" d="M317.887,126.09h-11.589c-2.366,0-4.356-1.995-4.356-4.359v-10.106h8.714v5.748h2.875V94.194h8.718
					v27.537C322.245,124.095,320.25,126.09,317.887,126.09z"/>
				<path fill="#F2F2F2" d="M341.073,126.09h-11.592c-2.366,0-4.356-1.995-4.356-4.359V102.91h8.715v17.385h2.874V102.91h8.718
					v18.821C345.429,124.095,343.437,126.09,341.073,126.09z"/>
				<path fill="#F2F2F2" d="M364.253,117.374h-7.23v2.922h10.151v5.796h-14.509c-2.363,0-4.356-1.994-4.356-4.359v-14.465
					c0-2.365,1.993-4.357,4.356-4.357h11.588c2.366,0,4.359,1.994,4.359,4.357v5.794
					C368.612,115.427,366.619,117.374,364.253,117.374z M359.897,108.705h-2.875v2.922h2.875V108.705z"/>
				<path fill="#F2F2F2" d="M387.439,134.806h-14.509v-5.841h10.153v-2.873h-7.233c-2.366,0-4.358-1.994-4.358-4.359v-14.465
					c0-2.365,1.992-4.357,4.358-4.357h15.947v27.537C391.796,132.811,389.803,134.806,387.439,134.806z M383.084,108.705h-2.878
					v11.591h2.878V108.705z"/>
				<path fill="#F2F2F2" d="M414.979,121.731c0,2.366-1.992,4.359-4.355,4.359h-11.592c-2.361,0-4.356-1.995-4.356-4.359v-14.463
					c0-2.365,1.995-4.357,4.356-4.357h11.592c2.363,0,4.355,1.994,4.355,4.357V121.731z M406.267,108.705h-2.874v11.591h2.874
					V108.705z"/>
				<path fill="#F2F2F2" d="M430.887,126.09h-13.028v-5.796h8.718v-2.921h-4.358c-2.364,0-4.359-1.947-4.359-4.312v-5.794
					c0-2.365,1.995-4.357,4.359-4.357h11.868v5.793h-7.513v2.921h4.311c2.366,0,4.361,1.948,4.361,4.313v5.793
					C435.245,124.095,433.25,126.09,430.887,126.09z"/>
			</g>
		</g>
	</g>
	<linearGradient id="SVGID_10_" gradientUnits="userSpaceOnUse" x1="278.5864" y1="114.1533" x2="483.9395" y2="114.1533">
		<stop  offset="0" style="stop-color:#FFFFFF;stop-opacity:0"/>
		<stop  offset="1" style="stop-color:#FFFFFF"/>
	</linearGradient>
	<path opacity="0.6" fill="url(#SVGID_10_)" d="M409.375,4.689h63.6c0,0,12.188,0.094,10.864,12.512l-0.387,206.416H278.586"/>
	<g>
		<path d="M648.737,283.201c0,3.905-2.356,7.072-5.265,7.072H424.479c-2.908,0-5.266-3.167-5.266-7.072V142.705
			c0-3.905,2.357-7.071,5.266-7.071h218.994c2.908,0,5.265,3.166,5.265,7.071V283.201z"/>
		<rect x="428.363" y="144.122" fill="#CCC8C8" width="211.85" height="130.601"/>
		<linearGradient id="SVGID_11_" gradientUnits="userSpaceOnUse" x1="496.6289" y1="205.3291" x2="648.8623" y2="205.3291">
			<stop  offset="0" style="stop-color:#FFFFFF;stop-opacity:0"/>
			<stop  offset="1" style="stop-color:#FFFFFF"/>
		</linearGradient>
		<path opacity="0.6" fill="url(#SVGID_11_)" d="M593.586,135.464h47.148c0,0,9.035,0.06,8.054,7.985l-0.286,131.745H496.629"/>
		<g>
			<g>
				<path fill="#5F6767" d="M380.122,292.406c0,0-1.91,3.557,11.659,6.521H675.82c0,0,9.502-0.609,12.005-5.089l0.017-2.453
					L380.122,292.406z"/>
				<linearGradient id="SVGID_12_" gradientUnits="userSpaceOnUse" x1="379.9902" y1="289.6582" x2="687.9609" y2="289.6582">
					<stop  offset="0" style="stop-color:#999C9D"/>
					<stop  offset="9.591131e-004" style="stop-color:#A5A7A9"/>
					<stop  offset="0.0037" style="stop-color:#C2C3C5"/>
					<stop  offset="0.0067" style="stop-color:#D9D8DA"/>
					<stop  offset="0.0099" style="stop-color:#E9E7EA"/>
					<stop  offset="0.0134" style="stop-color:#F2F0F3"/>
					<stop  offset="0.0183" style="stop-color:#F5F3F6"/>
					<stop  offset="0.0488" style="stop-color:#DFE1E3"/>
					<stop  offset="0.189" style="stop-color:#D1D1D1"/>
					<stop  offset="0.5061" style="stop-color:#E3E5E7"/>
					<stop  offset="0.872" style="stop-color:#D1D1D1"/>
					<stop  offset="0.9512" style="stop-color:#DFE1E3"/>
					<stop  offset="0.9878" style="stop-color:#F5F3F6"/>
					<stop  offset="1" style="stop-color:#999C9D"/>
				</linearGradient>
				<path fill="url(#SVGID_12_)" d="M380.189,285.227h307.753v7.903c0,0,0.46,1.055-3.162,0.791H383.087
					c0,0-2.834,0.791-3.097-1.054L380.189,285.227z"/>
				<path fill="#5F6767" d="M673.646,289.839c0,0.308-0.204,0.556-0.455,0.556h-10.473c-0.252,0-0.455-0.248-0.455-0.556l0,0
					c0-0.308,0.203-0.556,0.455-0.556h10.473C673.442,289.283,673.646,289.531,673.646,289.839L673.646,289.839z"/>
			</g>
			<linearGradient id="SVGID_13_" gradientUnits="userSpaceOnUse" x1="533.9824" y1="289.6523" x2="533.9824" y2="285.29">
				<stop  offset="0.3415" style="stop-color:#676B6C"/>
				<stop  offset="0.3611" style="stop-color:#707475"/>
				<stop  offset="0.4574" style="stop-color:#989B9C"/>
				<stop  offset="0.5524" style="stop-color:#B7B9BB"/>
				<stop  offset="0.6444" style="stop-color:#CDCFD1"/>
				<stop  offset="0.7321" style="stop-color:#DADDDE"/>
				<stop  offset="0.811" style="stop-color:#DFE1E3"/>
				<stop  offset="0.9817" style="stop-color:#E3E5E7"/>
			</linearGradient>
			<path fill="url(#SVGID_13_)" d="M513.162,285.29c0,0-1.186,3.952,2.768,4.348h35.701c0,0,3.799,0.493,3.294-4.216L513.162,285.29
				z"/>
			<g>
				<linearGradient id="SVGID_14_" gradientUnits="userSpaceOnUse" x1="514.0078" y1="289.2695" x2="514.0078" y2="285.1904">
					<stop  offset="0.0244" style="stop-color:#5F6767"/>
					<stop  offset="0.4756" style="stop-color:#676B6C"/>
					<stop  offset="0.5137" style="stop-color:#717576"/>
					<stop  offset="0.6192" style="stop-color:#878A8B"/>
					<stop  offset="0.7202" style="stop-color:#949899"/>
					<stop  offset="0.811" style="stop-color:#999C9D"/>
				</linearGradient>
				<path fill="url(#SVGID_14_)" d="M513.36,285.285h0.025l0.015-0.093l-0.436-0.002c0,0-1.075,3.433,2.251,4.079
					C512.372,288.438,513.36,285.285,513.36,285.285z"/>
				<linearGradient id="SVGID_15_" gradientUnits="userSpaceOnUse" x1="535.1836" y1="289.4688" x2="535.1836" y2="285.4102">
					<stop  offset="0.0244" style="stop-color:#5F6767"/>
					<stop  offset="0.4756" style="stop-color:#676B6C"/>
					<stop  offset="0.5137" style="stop-color:#717576"/>
					<stop  offset="0.6192" style="stop-color:#878A8B"/>
					<stop  offset="0.7202" style="stop-color:#949899"/>
					<stop  offset="0.811" style="stop-color:#999C9D"/>
				</linearGradient>
				<path fill="url(#SVGID_15_)" d="M555.122,285.412l-0.385-0.002v0.095c0.278,4.448-3.305,3.842-3.305,3.842h-35.701
					c-0.185-0.018-0.353-0.044-0.516-0.077c0.269,0.079,0.568,0.14,0.91,0.171h35.702
					C551.828,289.44,555.518,290.071,555.122,285.412z"/>
				<linearGradient id="SVGID_16_" gradientUnits="userSpaceOnUse" x1="554.7354" y1="285.5049" x2="554.7354" y2="285.4102">
					<stop  offset="0.0244" style="stop-color:#5F6767"/>
					<stop  offset="0.4756" style="stop-color:#676B6C"/>
					<stop  offset="0.5137" style="stop-color:#717576"/>
					<stop  offset="0.6192" style="stop-color:#878A8B"/>
					<stop  offset="0.7202" style="stop-color:#949899"/>
					<stop  offset="0.811" style="stop-color:#999C9D"/>
				</linearGradient>
				<path fill="url(#SVGID_16_)" d="M554.737,285.505v-0.095h-0.004C554.734,285.442,554.734,285.472,554.737,285.505z"/>
			</g>
		</g>
	</g>
</g>
</svg>
